<svg xmlns="http://www.w3.org/2000/svg" width="960" height="420" viewBox="0 0 960 420" role="img">
<title>p95 latency by optimization step</title>
<rect width="960" height="420" fill="#ffffff" />
<text x="72" y="30" font-size="22" font-weight="700" fill="#111827">p95 latency by optimization step</text>
<text x="72" y="50" font-size="13" fill="#4b5563">p95 latency (s)</text>
<line x1="72" y1="56.00" x2="928" y2="56.00" stroke="#e5e7eb" />
<text x="60" y="60.00" text-anchor="end" font-size="12" fill="#4b5563">3.1</text>
<line x1="72" y1="123.00" x2="928" y2="123.00" stroke="#e5e7eb" />
<text x="60" y="127.00" text-anchor="end" font-size="12" fill="#4b5563">2.6</text>
<line x1="72" y1="190.00" x2="928" y2="190.00" stroke="#e5e7eb" />
<text x="60" y="194.00" text-anchor="end" font-size="12" fill="#4b5563">2.1</text>
<line x1="72" y1="257.00" x2="928" y2="257.00" stroke="#e5e7eb" />
<text x="60" y="261.00" text-anchor="end" font-size="12" fill="#4b5563">1.7</text>
<line x1="72" y1="324.00" x2="928" y2="324.00" stroke="#e5e7eb" />
<text x="60" y="328.00" text-anchor="end" font-size="12" fill="#4b5563">1.2</text>
<line x1="72" y1="56" x2="72" y2="324" stroke="#9ca3af" />
<line x1="72" y1="324" x2="928" y2="324" stroke="#9ca3af" />
<polyline points="72.00,89.50 357.33,196.32 642.67,261.84 928.00,298.88" fill="none" stroke="#b45309" stroke-width="3" />
<circle cx="72.00" cy="89.50" r="5" fill="#b45309" /><text x="72.00" y="77.50" text-anchor="middle" font-size="12" fill="#111827">2.85</text>
<circle cx="357.33" cy="196.32" r="5" fill="#b45309" /><text x="357.33" y="184.32" text-anchor="middle" font-size="12" fill="#111827">2.10</text>
<circle cx="642.67" cy="261.84" r="5" fill="#b45309" /><text x="642.67" y="249.84" text-anchor="middle" font-size="12" fill="#111827">1.64</text>
<circle cx="928.00" cy="298.88" r="5" fill="#b45309" /><text x="928.00" y="286.88" text-anchor="middle" font-size="12" fill="#111827">1.38</text>
<text x="72.00" y="362" text-anchor="middle" font-size="12" fill="#111827">Baseline</text>
<text x="72.00" y="380" text-anchor="middle" font-size="11" fill="#4b5563">1</text>
<text x="357.33" y="362" text-anchor="middle" font-size="12" fill="#111827">SGLang serving</text>
<text x="357.33" y="380" text-anchor="middle" font-size="11" fill="#4b5563">2</text>
<text x="642.67" y="362" text-anchor="middle" font-size="12" fill="#111827">8GB tuned profile</text>
<text x="642.67" y="380" text-anchor="middle" font-size="11" fill="#4b5563">3</text>
<text x="928.00" y="362" text-anchor="middle" font-size="12" fill="#111827">Concurrency tuned</text>
<text x="928.00" y="380" text-anchor="middle" font-size="11" fill="#4b5563">4</text>
</svg>