<svg xmlns="http://www.w3.org/2000/svg" width="960" height="420" viewBox="0 0 960 420" role="img">
<title>Inference throughput by optimization step</title>
<rect width="960" height="420" fill="#ffffff" />
<text x="72" y="30" font-size="22" font-weight="700" fill="#111827">Inference throughput by optimization step</text>
<text x="72" y="50" font-size="13" fill="#4b5563">tokens/s</text>
<line x1="72" y1="56.00" x2="928" y2="56.00" stroke="#e5e7eb" />
<text x="60" y="60.00" text-anchor="end" font-size="12" fill="#4b5563">147.1</text>
<line x1="72" y1="123.00" x2="928" y2="123.00" stroke="#e5e7eb" />
<text x="60" y="127.00" text-anchor="end" font-size="12" fill="#4b5563">118.3</text>
<line x1="72" y1="190.00" x2="928" y2="190.00" stroke="#e5e7eb" />
<text x="60" y="194.00" text-anchor="end" font-size="12" fill="#4b5563">89.4</text>
<line x1="72" y1="257.00" x2="928" y2="257.00" stroke="#e5e7eb" />
<text x="60" y="261.00" text-anchor="end" font-size="12" fill="#4b5563">60.5</text>
<line x1="72" y1="324.00" x2="928" y2="324.00" stroke="#e5e7eb" />
<text x="60" y="328.00" text-anchor="end" font-size="12" fill="#4b5563">31.7</text>
<line x1="72" y1="56" x2="72" y2="324" stroke="#9ca3af" />
<line x1="72" y1="324" x2="928" y2="324" stroke="#9ca3af" />
<polyline points="72.00,298.88 357.33,230.86 642.67,173.76 928.00,89.50" fill="none" stroke="#0f766e" stroke-width="3" />
<circle cx="72.00" cy="298.88" r="5" fill="#0f766e" /><text x="72.00" y="286.88" text-anchor="middle" font-size="12" fill="#111827">42.50</text>
<circle cx="357.33" cy="230.86" r="5" fill="#0f766e" /><text x="357.33" y="218.86" text-anchor="middle" font-size="12" fill="#111827">71.80</text>
<circle cx="642.67" cy="173.76" r="5" fill="#0f766e" /><text x="642.67" y="161.76" text-anchor="middle" font-size="12" fill="#111827">96.40</text>
<circle cx="928.00" cy="89.50" r="5" fill="#0f766e" /><text x="928.00" y="77.50" text-anchor="middle" font-size="12" fill="#111827">132.70</text>
<text x="72.00" y="362" text-anchor="middle" font-size="12" fill="#111827">Baseline</text>
<text x="72.00" y="380" text-anchor="middle" font-size="11" fill="#4b5563">1</text>
<text x="357.33" y="362" text-anchor="middle" font-size="12" fill="#111827">SGLang serving</text>
<text x="357.33" y="380" text-anchor="middle" font-size="11" fill="#4b5563">2</text>
<text x="642.67" y="362" text-anchor="middle" font-size="12" fill="#111827">8GB tuned profile</text>
<text x="642.67" y="380" text-anchor="middle" font-size="11" fill="#4b5563">3</text>
<text x="928.00" y="362" text-anchor="middle" font-size="12" fill="#111827">Concurrency tuned</text>
<text x="928.00" y="380" text-anchor="middle" font-size="11" fill="#4b5563">4</text>
</svg>